<?xml version="1.0" encoding="utf-8"?>
<!-- Generator: Adobe Illustrator 21.0.2, SVG Export Plug-In . SVG Version: 6.00 Build 0)  -->
<svg version="1.1" id="Layer_1" xmlns="http://www.w3.org/2000/svg" xmlns:xlink="http://www.w3.org/1999/xlink" x="0px" y="0px"
	 viewBox="0 0 496.2 496.2" style="enable-background:new 0 0 496.2 496.2;" xml:space="preserve">
<style type="text/css">
	.st0{fill:#B8893B;}
	.st1{fill:#FFFFFF;}
	.st2{fill:none;stroke:#FFFFFF;stroke-width:2;stroke-linecap:round;stroke-linejoin:round;stroke-miterlimit:10;}
</style>
<path class="st0" d="M248.1,0C111.1,0,0,111.1,0,248.1s111.1,248.1,248.1,248.1s248.1-111.1,248.1-248.1S385.1,0,248.1,0z"/>
<path class="st1" d="M290.3,173.6c2.1-1.3,5.9-2,11.5-2v-6.3H194.4v6.3c5.5,0,9.4,0.7,11.5,2s3.2,4.2,3.2,8.8v132.3
	c0,3.6-1.1,6.1-3.2,7.6c-2.1,1.5-5.9,2.2-11.5,2.2v6.3h107.4v-6.3c-5.5,0-9.4-0.7-11.5-2.2s-3.2-4-3.2-7.6V182.4
	C287.1,177.9,288.2,174.9,290.3,173.6z M262.7,314.7c0,3.6-1.1,6.1-3.2,7.6s-5.9,2.2-11.5,2.2s-9.4-0.7-11.5-2.2s-3.2-4-3.2-7.6
	V182.4c0-4.6,1.1-7.5,3.2-8.8c2.1-1.3,5.9-2,11.5-2c5.5,0,9.4,0.7,11.5,2s3.2,4.2,3.2,8.8V314.7z"/>
<path class="st2" d="M290.3,173.6c2.1-1.3,5.9-2,11.5-2v-6.3H194.4v6.3c5.5,0,9.4,0.7,11.5,2s3.2,4.2,3.2,8.8v132.3
	c0,3.6-1.1,6.1-3.2,7.6c-2.1,1.5-5.9,2.2-11.5,2.2v6.3h107.4v-6.3c-5.5,0-9.4-0.7-11.5-2.2s-3.2-4-3.2-7.6V182.4
	C287.1,177.9,288.2,174.9,290.3,173.6z M262.7,314.7c0,3.6-1.1,6.1-3.2,7.6s-5.9,2.2-11.5,2.2s-9.4-0.7-11.5-2.2s-3.2-4-3.2-7.6
	V182.4c0-4.6,1.1-7.5,3.2-8.8c2.1-1.3,5.9-2,11.5-2c5.5,0,9.4,0.7,11.5,2s3.2,4.2,3.2,8.8V314.7z"/>
</svg>
