<?xml version="1.0" encoding="utf-8"?>
<!-- Generator: Adobe Illustrator 21.0.2, SVG Export Plug-In . SVG Version: 6.00 Build 0)  -->
<svg version="1.1" id="Layer_1" xmlns="http://www.w3.org/2000/svg" xmlns:xlink="http://www.w3.org/1999/xlink" x="0px" y="0px"
	 viewBox="0 0 496.2 496.2" style="enable-background:new 0 0 496.2 496.2;" xml:space="preserve">
<style type="text/css">
	.st0{fill:#898989;}
	.st1{fill:#FFFFFF;}
	.st2{fill:none;stroke:#FFFFFF;stroke-width:2;stroke-linecap:round;stroke-linejoin:round;stroke-miterlimit:10;}
</style>
<path class="st0" d="M248.1,0C111.1,0,0,111.1,0,248.1s111.1,248.1,248.1,248.1s248.1-111.1,248.1-248.1S385.1,0,248.1,0z"/>
<path class="st1" d="M189.7,173.6c2.1-1.3,5.9-2,11.5-2v-6.3h-53.7v6.3c5.5,0,9.4,0.7,11.5,2s3.2,4.2,3.2,8.8v132.3
	c0,3.6-1.1,6.1-3.2,7.6c-2.1,1.5-5.9,2.2-11.5,2.2v6.3h53.7v-6.3c-5.5,0-9.4-0.7-11.5-2.2s-3.2-4-3.2-7.6V182.4
	C186.6,177.9,187.6,174.9,189.7,173.6z"/>
<path class="st2" d="M189.7,173.6c2.1-1.3,5.9-2,11.5-2v-6.3h-53.7v6.3c5.5,0,9.4,0.7,11.5,2s3.2,4.2,3.2,8.8v132.3
	c0,3.6-1.1,6.1-3.2,7.6c-2.1,1.5-5.9,2.2-11.5,2.2v6.3h53.7v-6.3c-5.5,0-9.4-0.7-11.5-2.2s-3.2-4-3.2-7.6V182.4
	C186.6,177.9,187.6,174.9,189.7,173.6z"/>
<path class="st1" d="M307.2,165.3v6.3c5.5,0,9.8,0.7,12.7,2c1.9,0.8,2.8,2.3,2.8,4.5c0,1.2-0.3,2.6-0.9,4.3l-40,109.9l-36.6-109.9
	c-0.4-1.5-0.6-2.8-0.6-3.9c0-2.4,0.9-4,2.8-4.9c2.8-1.3,6.9-2,12.4-2v-6.3h-53.7v6.3c4.2,0,7.4,0.7,9.5,2s3.8,4.2,5.1,8.8L271,330.8
	h7.3L334,182.4c2-4.6,3.8-7.5,5.6-8.8c1.8-1.3,4.8-2,9-2v-6.3L307.2,165.3L307.2,165.3z"/>
<path class="st2" d="M307.2,165.3v6.3c5.5,0,9.8,0.7,12.7,2c1.9,0.8,2.8,2.3,2.8,4.5c0,1.2-0.3,2.6-0.9,4.3l-40,109.9l-36.6-109.9
	c-0.4-1.5-0.6-2.8-0.6-3.9c0-2.4,0.9-4,2.8-4.9c2.8-1.3,6.9-2,12.4-2v-6.3h-53.7v6.3c4.2,0,7.4,0.7,9.5,2s3.8,4.2,5.1,8.8L271,330.8
	h7.3L334,182.4c2-4.6,3.8-7.5,5.6-8.8c1.8-1.3,4.8-2,9-2v-6.3L307.2,165.3L307.2,165.3z"/>
</svg>
