<svg xmlns="http://www.w3.org/2000/svg" viewBox="0 0 371.88 512"><defs><style>.cls-1{fill:#898989;}</style></defs><title>coord</title><g id="Слой_2" data-name="Слой 2"><g id="Layer_1" data-name="Layer 1"><circle class="cls-1" cx="269.08" cy="42.62" r="42.1"/><path class="cls-1" d="M371.87,146c-.13-26.37-22.07-47.83-48.44-47.83H281.09a2.9,2.9,0,0,1,.79,3.74l-7.25,13.18,8.15,14.83a8.37,8.37,0,0,1,.85,5.77l-13,61a1.82,1.82,0,0,1-3.57,0L255,135.6a8.47,8.47,0,0,1,.88-5.66l8.18-14.88-7.16-13-.08-.15a2.9,2.9,0,0,1,.79-3.74H223.41a49.87,49.87,0,0,0-42.33,23.78l-16.65,27.33-12.51-44.18a20.24,20.24,0,0,0-9.54-12.14V68.37h7.45a5.89,5.89,0,0,0,5.89-5.89V35.7a5.89,5.89,0,0,0-5.89-5.89H113.65L87.88,12.95a5.9,5.9,0,0,0-9.12,4.93V80.3a5.9,5.9,0,0,0,9.12,4.93l25.77-16.86h6.49v26a20.3,20.3,0,0,0-7.31,21.74l25.19,89c4.81,17,27.64,20.22,36.89,5l39.88-65.46v343a24.38,24.38,0,0,0,48.75,0V292.79h10.52V487.62a24.38,24.38,0,1,0,48.75,0c0-90.69-.42-248.08-.44-342a4.26,4.26,0,0,1,4.26-4.26,4.47,4.47,0,0,1,4.5,4.26c0,.18,0,.36,0,.55V295.4c.06,11.18,9.63,20.21,20.8,20.21H352a20,20,0,0,0,19.84-20.41V146h0Z"/><path class="cls-1" d="M51.7,40.75H8.34a8.34,8.34,0,0,0,0,16.68H51.7a8.34,8.34,0,0,0,0-16.68Z"/><path class="cls-1" d="M53.77,11.38,10.41.26A8.34,8.34,0,0,0,6.27,16.42C53.42,28.51,50.21,27.8,51.71,27.8a8.34,8.34,0,0,0,2.07-16.42Z"/><path class="cls-1" d="M59.78,76.65a8.34,8.34,0,0,0-10.15-6L6.27,81.76a8.34,8.34,0,1,0,4.14,16.15L53.77,86.8A8.34,8.34,0,0,0,59.78,76.65Z"/></g></g></svg>