<?xml version="1.0" encoding="utf-8"?>
<!-- Generator: Adobe Illustrator 21.0.2, SVG Export Plug-In . SVG Version: 6.00 Build 0)  -->
<svg version="1.1" id="Capa_1" xmlns="http://www.w3.org/2000/svg" xmlns:xlink="http://www.w3.org/1999/xlink" x="0px" y="0px"
	 viewBox="0 0 53.3 53.3" style="enable-background:new 0 0 53.3 53.3;" xml:space="preserve">
<style type="text/css">
	.st0{fill:#B8893B;}
</style>
<g>
	<path class="st0" d="M4.6,30.9h6.1l4.7-10.4c0.2-0.4,0.5-0.6,0.9-0.6c0.4,0,0.8,0.3,0.9,0.6l5.2,13l4-7.2c0.2-0.3,0.5-0.5,0.9-0.5
		c0.4,0,0.7,0.2,0.9,0.5l1.7,2.8l3.5-16.5c0.1-0.5,0.5-0.8,1-0.8c0.5,0,0.9,0.4,1,0.8l2.9,18.2h10.6c1.9-2.6,3.3-5.5,4-8.6
		c0.8-3.3,0.5-5.2,0.5-5.6C52.5,8.1,46.4,1.9,38.8,1.9c-4.6,0-9,2.3-11.7,6.1c-0.2,0.3-0.5,0.3-0.6,0.3c-0.1,0-0.4,0-0.6-0.4
		c-2.7-3.9-6.8-6.1-11.4-6.1C6.9,1.9,0.9,8.1,0.1,16.7C0,17-0.2,19,0.5,22.3C1.3,25.4,2.7,28.3,4.6,30.9z"/>
	<path class="st0" d="M37.3,32.9c-0.5,0-0.9-0.4-1-0.8l-2.2-13.6l-2.9,13.7c-0.1,0.4-0.4,0.7-0.8,0.8c-0.4,0.1-0.8-0.1-1-0.5
		l-2.1-3.5l-4.2,7.5c-0.2,0.3-0.5,0.5-0.9,0.5c0,0,0,0-0.1,0c-0.4,0-0.7-0.3-0.9-0.6l-5.1-12.8l-4,8.9c-0.2,0.4-0.5,0.6-0.9,0.6H6.2
		c0.5,0.6,1.1,1.2,1.7,1.7l18.6,16.9l18.9-16.9c0.6-0.5,1.2-1.1,1.7-1.7L37.3,32.9L37.3,32.9z"/>
</g>
</svg>
