<?xml version="1.0" encoding="utf-8"?>
<!-- Generator: Adobe Illustrator 21.0.2, SVG Export Plug-In . SVG Version: 6.00 Build 0)  -->
<svg version="1.1" id="Capa_1" xmlns="http://www.w3.org/2000/svg" xmlns:xlink="http://www.w3.org/1999/xlink" x="0px" y="0px"
	 viewBox="0 0 59.4 59.4" style="enable-background:new 0 0 59.4 59.4;" xml:space="preserve">
<style type="text/css">
	.st0{fill:#B8893B;}
</style>
<g>
	<g>
		<circle class="st0" cx="16.4" cy="16.2" r="4.3"/>
		<path class="st0" d="M19.7,35.1c0.3-1.9,2.1-3.1,3.9-2.5l3.9,1.3c-0.8-1.3-1.5-2.7-2.1-4.2c-0.1-0.2-0.2-0.4-0.3-0.5L24.4,27
			c2.2,0.9,4.4,1.8,6.6,2.9c0.1,0.1,0.3,0.1,0.4,0.2c-1.7-1.1-2.6-3.2-2.2-5.3c0-0.2,0.1-0.3,0.1-0.5c-2.7-1.2-5.5-2.3-8.3-3.2
			c-0.1,0-0.2,0-0.3-0.1c-0.5-0.2-1.1-0.3-1.8-0.2c-1.2,0.1-2.5,0.8-3.3,1.9c-1.2,1.2-2.5,2.3-3.7,3.5c-2.1-0.7-4.3-1.4-6.4-2.1
			c-2.7-0.9-3.9,3.4-1.2,4.3c2.5,0.8,5.1,1.7,7.6,2.5c0.8,0.3,1.6,0,2.2-0.6c0.6-0.5,1.1-1.1,1.7-1.6c0.7,2.4,1.4,3.7,1.4,3.7
			s0.4,0.7,1,1.5c-1.5,4.4-3.1,8.8-4.8,13.1c-1,2.7,3.3,3.8,4.3,1.2c1.2-3.2,2.5-6.5,3.7-9.7C20,37.7,19.5,36.3,19.7,35.1z"/>
		<circle class="st0" cx="34.3" cy="25.9" r="4.3"/>
		<path class="st0" d="M50.1,44.2c-1,0.8-1.9,1.6-2.8,2.3c-1.5-2.2-2.9-4.5-3.9-7c-0.1-0.2-0.2-0.4-0.3-0.5l-0.8-2.2
			c2.2,0.9,4.4,1.8,6.6,2.9c2.6,1.3,4.8-2.6,2.2-3.8c-3.9-1.9-8-3.6-12.2-5c-0.1,0-0.2,0-0.3-0.1c-0.5-0.2-1.1-0.3-1.8-0.2
			c-1.2,0.1-2.5,0.8-3.3,1.9c-1.2,1.2-2.5,2.3-3.7,3.5c-2.1-0.7-4.3-1.4-6.4-2.1c-2.7-0.9-3.9,3.4-1.2,4.3c2.5,0.8,5.1,1.7,7.6,2.5
			c0.8,0.3,1.6,0,2.2-0.6c0.6-0.5,1.1-1.1,1.7-1.6c0.7,2.4,1.4,3.7,1.4,3.7s0.4,0.7,1,1.5c-1.5,4.4-3.1,8.8-4.8,13.1
			c-1,2.7,3.3,3.8,4.3,1.2c1.7-4.3,3.3-8.6,4.8-13c0.1,0,0.2-0.1,0.3-0.1c0.1,0,0.3-0.1,0.4-0.2c1.1,2.1,2.4,4.1,3.8,6.1
			c0.7,1,1.9,1.4,3,0.8c2-1.1,3.6-2.7,5.4-4.1C55.5,45.6,52.3,42.4,50.1,44.2z"/>
		<circle class="st0" cx="36.9" cy="4.3" r="4.3"/>
		<path class="st0" d="M52.7,22.5c-1,0.8-1.9,1.6-2.8,2.3c-1.5-2.2-2.9-4.5-3.9-7c-0.1-0.2-0.2-0.4-0.3-0.5l-0.8-2.2
			c2.2,0.9,4.4,1.8,6.6,2.9c2.6,1.3,4.8-2.6,2.2-3.8c-3.9-1.9-8-3.6-12.2-5c-0.1,0-0.2-0.1-0.3-0.1c-0.5-0.2-1.1-0.3-1.8-0.2
			c-1.2,0.1-2.5,0.8-3.3,1.9c-1.2,1.2-2.5,2.3-3.7,3.5c-2.1-0.7-4.3-1.4-6.4-2.1c-2.7-0.9-3.9,3.4-1.2,4.3c2.5,0.8,5.1,1.7,7.6,2.5
			c0.8,0.3,1.6,0,2.2-0.6c0.6-0.5,1.1-1.1,1.7-1.6c0.7,2.4,1.4,3.7,1.4,3.7s0.4,0.7,1,1.5c0,0.1-0.1,0.3-0.1,0.4
			c1,1.3,1.5,2.9,1.1,4.6c-0.2,0.9-0.5,1.6-1,2.3c0.1,0,0.1,0,0.2,0.1c0.1,0,0.3,0.1,0.4,0.1c0.4,0.1,0.9,0.3,1.3,0.5
			c0.8-2.2,1.6-4.4,2.4-6.6c0.1,0,0.2-0.1,0.3-0.1c0.1,0,0.3-0.1,0.4-0.2C44.7,25,46,27,47.4,29c0.7,1,1.9,1.4,3,0.8
			c2-1.1,3.6-2.7,5.4-4.1C58.1,23.9,55,20.8,52.7,22.5z"/>
	</g>
</g>
</svg>
