<?xml version="1.0" encoding="utf-8"?>
<!-- Generator: Adobe Illustrator 21.0.2, SVG Export Plug-In . SVG Version: 6.00 Build 0)  -->
<svg version="1.1" id="Layer_1" xmlns="http://www.w3.org/2000/svg" xmlns:xlink="http://www.w3.org/1999/xlink" x="0px" y="0px"
	 viewBox="0 0 512 512" style="enable-background:new 0 0 512 512;" xml:space="preserve">
<style type="text/css">
	.st0{fill:#898989;}
</style>
<g>
	<g>
		<path class="st0" d="M495.8,101.4h-13.6c0-25.5,0-20,0-45.6c0-4.7-3.8-8.5-8.5-8.5h-23.3c-4.7,0-8.5,3.8-8.5,8.5
			c0,25.6,0,20.1,0,45.6H412c1.2-13.1-8.4-24.5-21.1-25.8c-13.1-1.4-24.7,8.2-26.1,21.1l-0.5,4.7h-41.1
			c-12.1,26.2-38.3,43.1-67.3,43.1c-29.4,0-55.3-17.3-67.3-43.1h-40.9l-0.5-4.7c-1.4-13-13.1-22.5-26.1-21.1
			c-12.7,1.3-22.4,12.8-21.1,25.8H70.2c0-25.5,0-20,0-45.6c0-4.7-3.8-8.5-8.5-8.5H38.3c-4.7,0-8.5,3.8-8.5,8.5c0,25.6,0,20.1,0,45.6
			H16.2c-8.9,0-16.2,7.2-16.2,16.2c0,8.9,7.2,16.2,16.2,16.2h13.6c0,25.5,0,20,0,45.6c0,4.7,3.8,8.5,8.5,8.5h23.3
			c4.7,0,8.5-3.8,8.5-8.5c0-25.6,0-20.1,0-45.6h33.3c1,9.7,8.3,78,9.3,88.1c2.1,20.3,27.7,28.9,41.5,13.1l33.3-38.2v90.8l-86.3,35.1
			c-10.1,4.1-17.2,13.2-18.9,23.9L65.2,459.4c-2.6,16.8,9,32.6,25.8,35.2s32.6-9,35.2-25.8l14.6-95.5l79.8-32.4h70.9l79.8,32.4
			l14.6,95.5c2.6,16.8,18.3,28.4,35.2,25.8c16.8-2.6,28.4-18.3,25.8-35.2l-17.2-112.9c-1.6-10.7-8.8-19.8-18.9-23.9l-87-35.3V196
			l34.1,39c13.4,15.3,39.3,7.7,41.5-13.1c1.1-10.1,8.3-78.5,9.3-88.1h33.2c0,25.5,0,20,0,45.6c0,4.7,3.8,8.5,8.5,8.5h23.3
			c4.7,0,8.5-3.8,8.5-8.5c0-25.6,0-20.1,0-45.6h13.6c8.9,0,16.2-7.2,16.2-16.2C512,108.6,504.8,101.4,495.8,101.4z M154.3,162.8
			c-1.3-12.1-1.8-17.2-3.1-29.1h28.5C169.4,145.5,164.7,150.8,154.3,162.8z M357.8,162.8c-11.8-13.5,3.4,3.8-25.5-29.1h28.5
			C358.5,156.3,359.1,150.7,357.8,162.8z"/>
	</g>
</g>
<g>
	<g>
		<circle class="st0" cx="256" cy="70.4" r="53.3"/>
	</g>
</g>
</svg>
