<svg xmlns="http://www.w3.org/2000/svg" viewBox="0 0 336.6 220.2">
    <defs>
        <style>.cls-1{fill:#0090d0;}.cls-1,.cls-2,.cls-3{fill-rule:evenodd;}.cls-2{fill:#4cbde8;}.cls-3{fill:#050303;}
        </style>
    </defs>
    <title>Ресурс 2</title>
    <g id="Слой_2" data-name="Слой 2">
        <g id="Layer_1" data-name="Layer 1">
            <path class="cls-1" d="M130.1,2l.5-2C168,29.6,188.3,75,192,113.6c.3,2.8-13,1.9-36.9,11.2L98.5,148.7Z"/>
            <path class="cls-2"
                  d="M103.4,125.6l-4.9,23.1,56.6-24c23.9-9.3,37.2-8.3,36.9-11.1-1.5-15.8-4.2-26.6-10.3-42.4C156.9,81.1,119.5,107.7,103.4,125.6Z"/>
            <path class="cls-3"
                  d="M91.1,148.5c25.6-14.9,52.7-24.9,81.8-31.8-4.3-34.3-25.9-66.9-57.4-83.2Zm0,0ZM111.9,26.6l.4-2.1C152,44.3,171.5,81,180.1,114.8v.4a179.46,179.46,0,0,1,36-4,341.26,341.26,0,0,0-72.6,19.2c-9.2,3.6-17.4,7.3-24.7,10.7l-12.6,6.2a259.84,259.84,0,0,0-23.1,13.3C92.4,116,102.3,71.2,111.9,26.6Z"/>
            <path class="cls-3"
                  d="M284.4,185.3c-.1.1-.1.2-.1.4a10.57,10.57,0,0,0,2.5.2h45.6l-.4,1.5-1.2,5.6H284.7c-2.2,0-6,0-7.7-1.7-1.2-1.3-1.1-3-.9-4.6H276l.6-2.9.2-.5,1.6-9.2c.5-2.2,1.1-5.7,2.8-7.3,2-2,6.1-2,8.8-2h46.6l-.3,1.5-1.2,5.5h-45c-.9,0-2.4,0-3,.7a1.94,1.94,0,0,0-.5.9l-.3,1.5Zm0,0Zm-55.9-2.1-28.1-18.4h12.7l.3.2,21.5,14.1,20.8-14h13.1l-3.6,2.4L227.6,193H214.9Zm0,0ZM145.8,172l-1.2,5.5h37.7c.8,0,2.5,0,3.1-.7a5.46,5.46,0,0,0,.6-1.8l.1-.5h0v-.1a11.29,11.29,0,0,0,.3-1.8c0-.7-2-.6-2.3-.6Zm0,0Zm-2.7,12.6-1.5,8.4h-7.3l.4-1.5,5.4-26.5h46c2.2,0,6.6-.1,8.1,2a4.9,4.9,0,0,1,.6,2.7,23.41,23.41,0,0,1-.8,5.2l-.1.6c-.5,2.2-1,5.2-2.6,6.9-2,2.1-6.1,2.2-8.8,2.2Zm0,0Zm-50.3-7h18.9l2.5-13.1c-6.4,3.4-14.8,8.9-21,12.8Zm0,0ZM122,161c7.2-4.2,12.1-6.8,19.3-10.3l2.4-8.4-1.2.5C101,162.1,67.3,187.4,34.6,215.3c-.9.8-.1,2,1,1.2,9.4-6.6,18.8-13.1,28.2-19.6,6.1-4.2,12.3-8.3,18.4-12.4h28.2c0,.2-.1.5-.1.7-.2,1-1.1,7.8-1,8.7h6.4Zm0,0ZM53,171.9H11.2L7,192.9H0L5.7,165H61.5l-.3,1.5-5.4,26.4h-7l.3-1.6Z"/>
            <polygon class="cls-3" points="87.3 209.5 79.1 209.5 77.2 220.2 74 220.2 76.3 206.9 87.8 206.9 87.3 209.5"/>
            <path class="cls-3"
                  d="M98,209.5H92.7l-.8,4.1h5.4c1.7,0,2.5-1,2.5-2.8C99.8,209.9,99.4,209.5,98,209.5Zm0,0Zm4.9,2c-.6,3.4-2.2,4.7-5.5,4.7H91.5l-.7,4H87.6l2.3-13.3H99c2.8,0,4.1.8,4.1,3A10,10,0,0,1,102.9,211.5Z"/>
            <path class="cls-3"
                  d="M112.8,216.9c-2.4,2.9-3.1,3.3-5.4,3.3h-1.3l.5-2.5h.6c1.4,0,2-.4,2-1a1.75,1.75,0,0,0-.1-.5l-4.5-9.3h3.7l3.1,7.5,5.6-7.5h3.8Z"/>
            <polygon class="cls-3"
                     points="134.7 220.2 131.5 220.2 133.4 209.5 125.2 209.5 123.3 220.2 120.1 220.2 122.4 206.9 137.1 206.9 134.7 220.2"/>
            <polygon class="cls-3"
                     points="151.5 220.2 148.3 220.2 150.2 209.5 141.9 209.5 140 220.2 136.9 220.2 139.2 206.9 153.8 206.9 151.5 220.2"/>
            <path class="cls-3"
                  d="M164.2,209.3H164l-3.5,5h5.4Zm0,0Zm3.6,10.9-1.1-3.4h-7.9l-2.3,3.4h-3.7l9.4-13.3h4.7l4.7,13.3Z"/>
            <polygon class="cls-3"
                     points="188.7 213.1 195.6 220.2 190.9 220.2 185.7 214.5 183.8 214.5 182.8 220.2 179.6 220.2 182 206.9 185.1 206.9 184.3 211.8 186.2 211.8 192.9 206.9 197.6 206.9 188.7 213.1"/>
            <path class="cls-3"
                  d="M208.9,209.3h-4.1c-2,0-2.7.5-3,2.4l-.6,3.6a2.77,2.77,0,0,0-.1.9c0,1,.6,1.3,2.2,1.3h4.2c2,0,2.6-.4,2.9-2.2l.6-3.6a2.77,2.77,0,0,0,.1-.9C211.1,209.7,210.5,209.3,208.9,209.3Zm0,0Zm5.4,2.1-.8,4.2c-.6,3.4-1.9,4.6-5.6,4.6H202c-2.9,0-4.2-.9-4.2-3.1a8.65,8.65,0,0,1,.1-1.5l.8-4.2c.6-3.6,2.1-4.7,5.7-4.7h5.9c2.7,0,4.1.7,4.1,3.1A9.14,9.14,0,0,1,214.3,211.4Z"/>
            <polygon class="cls-3"
                     points="236.1 220.2 232.9 220.2 234.8 209.5 234.4 209.5 227.9 220.2 223.4 220.2 220.7 209.5 220.2 209.5 218.2 220.2 215.2 220.2 217.5 206.9 223.5 206.9 226 217.5 226.2 217.5 232.5 206.9 238.4 206.9 236.1 220.2"/>
            <polygon class="cls-3"
                     points="253 220.2 249.8 220.2 251.7 209.5 243.5 209.5 241.6 220.2 238.4 220.2 240.7 206.9 255.3 206.9 253 220.2"/>
            <path class="cls-3"
                  d="M265.7,209.3h-.2l-3.5,5h5.3Zm0,0Zm3.6,10.9-1.1-3.4h-7.9l-2.3,3.4h-3.7l9.4-13.3h4.7l4.6,13.3Z"/>
            <polygon class="cls-3"
                     points="288.8 220.2 285.6 220.2 286.5 214.6 278.3 214.6 277.3 220.2 274.1 220.2 276.5 206.9 279.7 206.9 278.8 211.9 287 211.9 287.9 206.9 291.1 206.9 288.8 220.2"/>
            <polygon class="cls-3"
                     points="308.3 220.2 305 220.2 306.9 209.5 306.5 209.5 296.6 220.2 291.1 220.2 293.5 206.9 296.7 206.9 294.8 217.5 295.2 217.5 305.2 206.9 310.6 206.9 308.3 220.2"/>
            <path class="cls-3"
                  d="M321.1,205.9c-3.3,0-4.2-.6-4.2-1.9a2.2,2.2,0,0,1,.1-.8V203h2.6v.6c0,.6.4.7,1.8.7,1.6,0,2-.1,2.2-1.3h2.6C325.9,204.8,325.3,205.9,321.1,205.9Zm0,0Zm6.6,14.3h-3.3l2-10.7h-.5L316,220.2h-5.5l2.4-13.3h3.2l-1.9,10.7h.4l10-10.7H330Z"/>
            <path class="cls-1" d="M68,207.2l-2.5,12.9H50.3A76,76,0,0,1,68,207.2Z"/>
        </g>
    </g>
</svg>