<svg id="Слой_1" data-name="Слой 1" xmlns="http://www.w3.org/2000/svg" viewBox="0 0 336.6 216.76"><defs><style>.cls-1{fill:#0090d0;}.cls-2{fill:#4cbde8;}.cls-3{fill:#050303;}</style></defs><title>logo2</title><g id="Слой_2" data-name="Слой 2"><g id="Layer_1" data-name="Layer 1"><path class="cls-1" d="M130.1,2l.5-2C168,29.6,188.3,75,192,113.6c.3,2.8-13,1.9-36.9,11.2L98.5,148.7Z"/><path class="cls-2" d="M103.4,125.6l-4.9,23.1,56.6-24c23.9-9.3,37.2-8.3,36.9-11.1-1.5-15.8-4.2-26.6-10.3-42.4C156.9,81.1,119.5,107.7,103.4,125.6Z"/><path class="cls-3" d="M192,113.07h0q-6,.87-11.84,2.13v-.4a166.24,166.24,0,0,0-13.74-36.28c-9.5-18.09-23.18-35-42.52-47.44A118.1,118.1,0,0,0,112.3,24.5l-.4,2.1c-9.6,44.6-19.5,89.4-28.8,134a260.68,260.68,0,0,1,23.1-13.3l12.6-6.2c7.3-3.4,15.5-7.1,24.7-10.7a341.4,341.4,0,0,1,72.6-19.2A180.55,180.55,0,0,0,192,113.07ZM115.5,33.5q3.57,1.85,7,4A111.08,111.08,0,0,1,172.9,116.7c-25.92,6.14-50.24,14.75-73.34,27.09,0,0,0,0,0,0Q95.3,146,91.1,148.5Z"/><path class="cls-3" d="M5.7,165,0,192.9H7l4.2-21H53l-3.9,19.4-.3,1.6h7l5.4-26.4.3-1.5Zm136.8-22.2C101,162.1,67.3,187.4,34.6,215.3c-.9.8-.1,2,1,1.2,9.4-6.6,18.8-13.1,28.2-19.6,6.1-4.2,12.3-8.3,18.4-12.4h28.2c0,.2-.1.5-.1.7-.2,1-1.1,7.8-1,8.7h6.4L122,161c7.2-4.2,12.1-6.8,19.3-10.3l2.4-8.4Zm-30.8,34.8H92.8l.4-.3c6.2-3.9,14.6-9.4,21-12.8ZM194.2,167c-1.5-2.1-5.9-2-8.1-2h-46l-5.4,26.5-.4,1.5h7.3l1.5-8.4h39.4c2.7,0,6.8-.1,8.8-2.2,1.6-1.7,2.1-4.7,2.6-6.9l.1-.6a23.46,23.46,0,0,0,.8-5.2A4.88,4.88,0,0,0,194.2,167Zm-8.1,7.4v.1l-.1.5a5.46,5.46,0,0,1-.6,1.8c-.6.7-2.3.7-3.1.7H144.6l1.2-5.5h38.3c.3,0,2.3-.1,2.3.6A10.91,10.91,0,0,1,186.1,174.4Zm69.6-9.3-20.8,14L213.4,165l-.3-.2H200.4l28.1,18.4L214.9,193h12.7l37.6-25.5,3.6-2.4Zm34.3-.3c-2.7,0-6.8,0-8.8,2-1.7,1.6-2.3,5.1-2.8,7.3l-1.6,9.2-.2.5-.6,2.9h.1c-.2,1.6-.3,3.3.9,4.6,1.7,1.7,5.5,1.7,7.7,1.7h46.1l1.2-5.6.4-1.5H286.8a10.47,10.47,0,0,1-2.5-.2c0-.2,0-.3.1-.4l1.9-10.4.3-1.5a2,2,0,0,1,.5-.9c.6-.7,2.1-.7,3-.7h45l1.2-5.5.3-1.5Z"/></g></g></svg>